<svg width="1024" height="1024" viewBox="0 0 1024 1024" xmlns="http://www.w3.org/2000/svg">
  <rect width="1024" height="1024" rx="0" fill="#0B0F14"/>
  <circle cx="512" cy="512" r="430" fill="#0F2A22"/>
  <!-- Bus body -->
  <rect x="272" y="420" width="480" height="260" rx="40" fill="#00E58A"/>
  <rect x="310" y="460" width="404" height="120" rx="16" fill="#0B0F14"/>
  <rect x="330" y="480" width="90" height="80" rx="8" fill="#00E58A"/>
  <rect x="440" y="480" width="90" height="80" rx="8" fill="#00E58A"/>
  <rect x="550" y="480" width="90" height="80" rx="8" fill="#00E58A"/>
  <circle cx="352" cy="700" r="42" fill="#0B0F14"/>
  <circle cx="352" cy="700" r="20" fill="#00E58A"/>
  <circle cx="672" cy="700" r="42" fill="#0B0F14"/>
  <circle cx="672" cy="700" r="20" fill="#00E58A"/>
  <!-- RFID signal waves above -->
  <path d="M 420 330 Q 512 260 604 330" stroke="#2F80ED" stroke-width="22" fill="none" stroke-linecap="round"/>
  <path d="M 452 372 Q 512 320 572 372" stroke="#2F80ED" stroke-width="22" fill="none" stroke-linecap="round"/>
  <circle cx="512" cy="405" r="16" fill="#2F80ED"/>
</svg>
